<svg width="30" height="30" viewBox="0 0 30 30" fill="none" xmlns="http://www.w3.org/2000/svg">
<path d="M16.6995 0.799417C17.1014 0.28755 17.6463 0 18.2146 0C18.7828 0 19.3277 0.28755 19.7296 0.799417L29.3726 13.0861C29.7743 13.5981 30 14.2925 30 15.0165C30 15.7405 29.7743 16.4348 29.3726 16.9469L19.7296 29.2335C19.3254 29.7309 18.7841 30.0061 18.2223 29.9999C17.6604 29.9937 17.123 29.7065 16.7256 29.2003C16.3283 28.6941 16.103 28.0092 16.0981 27.2933C16.0932 26.5775 16.3092 25.8878 16.6995 25.3728L22.5003 17.7469H2.14289C1.57456 17.7469 1.02951 17.4592 0.627638 16.9471C0.225768 16.4351 0 15.7406 0 15.0165C0 14.2923 0.225768 13.5979 0.627638 13.0858C1.02951 12.5738 1.57456 12.2861 2.14289 12.2861H22.5003L16.6995 4.66017C16.2978 4.14815 16.0721 3.45379 16.0721 2.72979C16.0721 2.00579 16.2978 1.31144 16.6995 0.799417Z" fill="white"/>
</svg>
