<svg width="22" height="25" viewBox="0 0 22 25" fill="none" xmlns="http://www.w3.org/2000/svg">
<path d="M9.92285 0.0833359C12.9096 0.0833359 15.3398 2.51358 15.3398 5.50033V6.58334H18.5898C18.877 6.58342 19.1524 6.69763 19.3555 6.90072C19.5586 7.10381 19.6728 7.37914 19.6729 7.66634V13.4779C18.9987 13.1896 18.2702 13.0048 17.5068 12.9417L17.5059 8.75033H15.3398V10.9163H13.1729V8.75033H6.67285V10.9163H4.50586V8.75033H2.33984V19.5833H9.93066C9.92549 19.6937 9.92286 19.8047 9.92285 19.9163C9.92285 20.551 10.0087 21.1658 10.167 21.7503H2.33984C1.14493 21.7503 0.172852 20.7783 0.172852 19.5833V7.66634C0.172938 7.37914 0.287147 7.10381 0.490234 6.90072C0.693322 6.69763 0.968659 6.58342 1.25586 6.58334H4.50586V5.50033C4.50586 2.51358 6.9361 0.0833361 9.92285 0.0833359ZM9.92285 2.25033C8.13102 2.25033 6.67285 3.70849 6.67285 5.50033V6.58334H13.1729V5.50033C13.1729 3.70849 11.7147 2.25033 9.92285 2.25033Z" fill="black"/>
<circle cx="16.9229" cy="19.9167" r="5" fill="#FF7F3E"/>
</svg>
