<svg width="25" height="25" viewBox="0 0 25 25" fill="none" xmlns="http://www.w3.org/2000/svg">
<path fill-rule="evenodd" clip-rule="evenodd" d="M8.965 14.1672L12.5025 16.5859L15.9125 14.2334L23.5562 21.7748C23.3546 21.8406 23.1413 21.8739 22.9163 21.8748H2.08375C1.80875 21.8748 1.54625 21.821 1.305 21.7248L8.965 14.1672ZM25 7.96957V19.791C25 20.0997 24.9325 20.3922 24.8125 20.656L17.32 13.2634L25 7.96957ZM0 8.03582L7.5525 13.2009L0.1325 20.5235C0.0455785 20.289 0.00072374 20.041 0 19.791L0 8.03582ZM22.9163 3.12451C24.0662 3.12451 25 4.05702 25 5.20829V5.9408L12.4975 14.5597L0 6.01205V5.20829C0 4.05827 0.9325 3.12451 2.08375 3.12451H22.9163Z" fill="#F8F8F8"/>
</svg>
