<svg width="573" height="186" viewBox="0 0 573 186" fill="none" xmlns="http://www.w3.org/2000/svg">
<path d="M4.6875 86V13.2727H36.0795C41.4773 13.2727 46.2003 14.3381 50.2486 16.4688C54.2969 18.5994 57.4456 21.5942 59.6946 25.4531C61.9437 29.312 63.0682 33.822 63.0682 38.983C63.0682 44.1913 61.9081 48.7012 59.5881 52.5128C57.2917 56.3243 54.0601 59.2599 49.8935 61.3196C45.7505 63.3793 40.9091 64.4091 35.3693 64.4091H16.6193V49.0682H31.392C33.7121 49.0682 35.6889 48.6657 37.3224 47.8608C38.9796 47.0322 40.2462 45.8603 41.1222 44.3452C42.0218 42.83 42.4716 41.0426 42.4716 38.983C42.4716 36.8996 42.0218 35.1241 41.1222 33.6562C40.2462 32.1648 38.9796 31.0284 37.3224 30.2472C35.6889 29.4422 33.7121 29.0398 31.392 29.0398H24.4318V86H4.6875ZM70.3125 86V13.2727H90.0568V41.6818H116.193V13.2727H135.938V86H116.193V57.5909H90.0568V86H70.3125ZM215.767 49.6364C215.767 57.733 214.193 64.563 211.044 70.1264C207.895 75.6662 203.646 79.8684 198.295 82.733C192.945 85.5739 186.979 86.9943 180.398 86.9943C173.769 86.9943 167.779 85.562 162.429 82.6974C157.102 79.8092 152.865 75.5952 149.716 70.0554C146.591 64.492 145.028 57.6856 145.028 49.6364C145.028 41.5398 146.591 34.7216 149.716 29.1818C152.865 23.6184 157.102 19.4162 162.429 16.5753C167.779 13.7107 173.769 12.2784 180.398 12.2784C186.979 12.2784 192.945 13.7107 198.295 16.5753C203.646 19.4162 207.895 23.6184 211.044 29.1818C214.193 34.7216 215.767 41.5398 215.767 49.6364ZM195.455 49.6364C195.455 45.2803 194.875 41.6108 193.714 38.6278C192.578 35.6212 190.885 33.3485 188.636 31.8097C186.411 30.2472 183.665 29.4659 180.398 29.4659C177.131 29.4659 174.373 30.2472 172.124 31.8097C169.898 33.3485 168.205 35.6212 167.045 38.6278C165.909 41.6108 165.341 45.2803 165.341 49.6364C165.341 53.9924 165.909 57.6738 167.045 60.6804C168.205 63.6634 169.898 65.9361 172.124 67.4986C174.373 69.0374 177.131 69.8068 180.398 69.8068C183.665 69.8068 186.411 69.0374 188.636 67.4986C190.885 65.9361 192.578 63.6634 193.714 60.6804C194.875 57.6738 195.455 53.9924 195.455 49.6364ZM287.828 13.2727V86H271.351L245.073 47.7898H244.647V86H224.902V13.2727H241.664L267.516 51.3409H268.084V13.2727H287.828ZM297.168 86V13.2727H316.912V42.6761H317.907L339.782 13.2727H362.793L338.219 45.6591L363.361 86H339.782L323.446 58.7273L316.912 67.25V86H297.168ZM365.669 13.2727H387.686L401.891 42.8182H402.459L416.664 13.2727H438.681L411.976 63.1307V86H392.374V63.1307L365.669 13.2727Z" fill="black"/>
<mask id="path-2-inside-1_14_388" fill="white">
<path d="M269.688 172V99.2727H289.432V127.682H315.568V99.2727H335.312V172H315.568V143.591H289.432V172H269.688ZM415.142 135.636C415.142 143.733 413.568 150.563 410.419 156.126C407.27 161.666 403.021 165.868 397.67 168.733C392.32 171.574 386.354 172.994 379.773 172.994C373.144 172.994 367.154 171.562 361.804 168.697C356.477 165.809 352.24 161.595 349.091 156.055C345.966 150.492 344.403 143.686 344.403 135.636C344.403 127.54 345.966 120.722 349.091 115.182C352.24 109.618 356.477 105.416 361.804 102.575C367.154 99.7107 373.144 98.2784 379.773 98.2784C386.354 98.2784 392.32 99.7107 397.67 102.575C403.021 105.416 407.27 109.618 410.419 115.182C413.568 120.722 415.142 127.54 415.142 135.636ZM394.83 135.636C394.83 131.28 394.25 127.611 393.089 124.628C391.953 121.621 390.26 119.348 388.011 117.81C385.786 116.247 383.04 115.466 379.773 115.466C376.506 115.466 373.748 116.247 371.499 117.81C369.273 119.348 367.58 121.621 366.42 124.628C365.284 127.611 364.716 131.28 364.716 135.636C364.716 139.992 365.284 143.674 366.42 146.68C367.58 149.663 369.273 151.936 371.499 153.499C373.748 155.037 376.506 155.807 379.773 155.807C383.04 155.807 385.786 155.037 388.011 153.499C390.26 151.936 391.953 149.663 393.089 146.68C394.25 143.674 394.83 139.992 394.83 135.636ZM494.732 135.636C494.732 143.733 493.158 150.563 490.009 156.126C486.86 161.666 482.611 165.868 477.26 168.733C471.91 171.574 465.944 172.994 459.363 172.994C452.734 172.994 446.744 171.562 441.394 168.697C436.067 165.809 431.829 161.595 428.681 156.055C425.556 150.492 423.993 143.686 423.993 135.636C423.993 127.54 425.556 120.722 428.681 115.182C431.829 109.618 436.067 105.416 441.394 102.575C446.744 99.7107 452.734 98.2784 459.363 98.2784C465.944 98.2784 471.91 99.7107 477.26 102.575C482.611 105.416 486.86 109.618 490.009 115.182C493.158 120.722 494.732 127.54 494.732 135.636ZM474.419 135.636C474.419 131.28 473.839 127.611 472.679 124.628C471.543 121.621 469.85 119.348 467.601 117.81C465.376 116.247 462.63 115.466 459.363 115.466C456.096 115.466 453.337 116.247 451.088 117.81C448.863 119.348 447.17 121.621 446.01 124.628C444.874 127.611 444.306 131.28 444.306 135.636C444.306 139.992 444.874 143.674 446.01 146.68C447.17 149.663 448.863 151.936 451.088 153.499C453.337 155.037 456.096 155.807 459.363 155.807C462.63 155.807 465.376 155.037 467.601 153.499C469.85 151.936 471.543 149.663 472.679 146.68C473.839 143.674 474.419 139.992 474.419 135.636ZM531.85 172H503.867V99.2727H531.566C539.047 99.2727 545.51 100.729 550.955 103.641C556.424 106.529 560.638 110.696 563.597 116.141C566.58 121.562 568.072 128.061 568.072 135.636C568.072 143.212 566.592 149.723 563.633 155.168C560.674 160.589 556.483 164.756 551.062 167.668C545.64 170.556 539.237 172 531.85 172ZM523.612 155.239H531.14C534.738 155.239 537.804 154.659 540.337 153.499C542.894 152.339 544.835 150.338 546.161 147.497C547.511 144.656 548.185 140.703 548.185 135.636C548.185 130.57 547.499 126.616 546.126 123.776C544.776 120.935 542.788 118.934 540.16 117.774C537.556 116.614 534.36 116.034 530.572 116.034H523.612V155.239Z"/>
</mask>
<path d="M269.688 172H264.688V177H269.688V172ZM269.688 99.2727V94.2727H264.688V99.2727H269.688ZM289.432 99.2727H294.432V94.2727H289.432V99.2727ZM289.432 127.682H284.432V132.682H289.432V127.682ZM315.568 127.682V132.682H320.568V127.682H315.568ZM315.568 99.2727V94.2727H310.568V99.2727H315.568ZM335.312 99.2727H340.312V94.2727H335.312V99.2727ZM335.312 172V177H340.312V172H335.312ZM315.568 172H310.568V177H315.568V172ZM315.568 143.591H320.568V138.591H315.568V143.591ZM289.432 143.591V138.591H284.432V143.591H289.432ZM289.432 172V177H294.432V172H289.432ZM269.688 172H274.688V99.2727H269.688H264.688V172H269.688ZM269.688 99.2727V104.273H289.432V99.2727V94.2727H269.688V99.2727ZM289.432 99.2727H284.432V127.682H289.432H294.432V99.2727H289.432ZM289.432 127.682V132.682H315.568V127.682V122.682H289.432V127.682ZM315.568 127.682H320.568V99.2727H315.568H310.568V127.682H315.568ZM315.568 99.2727V104.273H335.312V99.2727V94.2727H315.568V99.2727ZM335.312 99.2727H330.312V172H335.312H340.312V99.2727H335.312ZM335.312 172V167H315.568V172V177H335.312V172ZM315.568 172H320.568V143.591H315.568H310.568V172H315.568ZM315.568 143.591V138.591H289.432V143.591V148.591H315.568V143.591ZM289.432 143.591H284.432V172H289.432H294.432V143.591H289.432ZM289.432 172V167H269.688V172V177H289.432V172ZM410.419 156.126L414.766 158.597L414.77 158.589L410.419 156.126ZM397.67 168.733L400.015 173.149L400.023 173.145L400.03 173.141L397.67 168.733ZM361.804 168.697L359.421 173.093L359.432 173.099L359.444 173.105L361.804 168.697ZM349.091 156.055L344.732 158.504L344.738 158.515L344.744 158.526L349.091 156.055ZM349.091 115.182L344.739 112.719L344.736 112.725L349.091 115.182ZM361.804 102.575L364.157 106.987L364.164 106.983L361.804 102.575ZM397.67 102.575L395.31 106.983L395.318 106.987L395.326 106.991L397.67 102.575ZM410.419 115.182L406.068 117.645L406.072 117.653L410.419 115.182ZM393.089 124.628L388.412 126.396L388.421 126.418L388.429 126.44L393.089 124.628ZM388.011 117.81L385.138 121.902L385.163 121.919L385.188 121.936L388.011 117.81ZM371.499 117.81L374.342 121.922L374.351 121.916L371.499 117.81ZM366.42 124.628L361.756 122.828L361.752 122.838L361.748 122.848L366.42 124.628ZM366.42 146.68L361.743 148.448L361.752 148.47L361.76 148.493L366.42 146.68ZM371.499 153.499L368.625 157.591L368.65 157.608L368.675 157.625L371.499 153.499ZM388.011 153.499L390.855 157.611L390.864 157.605L388.011 153.499ZM393.089 146.68L388.425 144.881L388.421 144.89L388.417 144.9L393.089 146.68ZM415.142 135.636H410.142C410.142 143.096 408.692 149.026 406.068 153.664L410.419 156.126L414.77 158.589C418.443 152.1 420.142 144.37 420.142 135.636H415.142ZM410.419 156.126L406.072 153.656C403.365 158.418 399.786 161.929 395.31 164.325L397.67 168.733L400.03 173.141C406.255 169.808 411.175 164.914 414.766 158.597L410.419 156.126ZM397.67 168.733L395.326 164.317C390.759 166.742 385.609 167.994 379.773 167.994V172.994V177.994C387.099 177.994 393.881 176.406 400.015 173.149L397.67 168.733ZM379.773 172.994V167.994C373.89 167.994 368.723 166.73 364.164 164.289L361.804 168.697L359.444 173.105C365.586 176.394 372.398 177.994 379.773 177.994V172.994ZM361.804 168.697L364.187 164.302C359.725 161.883 356.15 158.356 353.438 153.585L349.091 156.055L344.744 158.526C348.33 164.834 353.229 169.736 359.421 173.093L361.804 168.697ZM349.091 156.055L353.45 153.607C350.841 148.962 349.403 143.048 349.403 135.636H344.403H339.403C339.403 144.323 341.09 152.022 344.732 158.504L349.091 156.055ZM344.403 135.636H349.403C349.403 128.17 350.844 122.251 353.446 117.638L349.091 115.182L344.736 112.725C341.088 119.193 339.403 126.909 339.403 135.636H344.403ZM349.091 115.182L353.442 117.645C356.152 112.856 359.718 109.354 364.157 106.987L361.804 102.575L359.451 98.1635C353.236 101.478 348.327 106.38 344.739 112.719L349.091 115.182ZM361.804 102.575L364.164 106.983C368.723 104.542 373.89 103.278 379.773 103.278V98.2784V93.2784C372.398 93.2784 365.586 94.879 359.444 98.1673L361.804 102.575ZM379.773 98.2784V103.278C385.602 103.278 390.746 104.54 395.31 106.983L397.67 102.575L400.03 98.1673C393.894 94.8818 387.106 93.2784 379.773 93.2784V98.2784ZM397.67 102.575L395.326 106.991C399.787 109.36 403.361 112.862 406.068 117.645L410.419 115.182L414.77 112.719C411.18 106.375 406.254 101.472 400.015 98.1592L397.67 102.575ZM410.419 115.182L406.072 117.653C408.692 122.262 410.142 128.176 410.142 135.636H415.142H420.142C420.142 126.904 418.444 119.182 414.766 112.711L410.419 115.182ZM394.83 135.636H399.83C399.83 130.87 399.199 126.544 397.75 122.816L393.089 124.628L388.429 126.44C389.3 128.678 389.83 131.691 389.83 135.636H394.83ZM393.089 124.628L397.767 122.86C396.335 119.072 394.072 115.898 390.835 113.683L388.011 117.81L385.188 121.936C386.449 122.799 387.571 124.17 388.412 126.396L393.089 124.628ZM388.011 117.81L390.885 113.718C387.66 111.453 383.857 110.466 379.773 110.466V115.466V120.466C382.223 120.466 383.912 121.041 385.138 121.902L388.011 117.81ZM379.773 115.466V110.466C375.687 110.466 371.884 111.454 368.646 113.703L371.499 117.81L374.351 121.916C375.612 121.04 377.325 120.466 379.773 120.466V115.466ZM371.499 117.81L368.655 113.697C365.457 115.909 363.206 119.068 361.756 122.828L366.42 124.628L371.085 126.428C371.954 124.175 373.09 122.788 374.342 121.922L371.499 117.81ZM366.42 124.628L361.748 122.848C360.332 126.565 359.716 130.879 359.716 135.636H364.716H369.716C369.716 131.682 370.236 128.656 371.093 126.408L366.42 124.628ZM364.716 135.636H359.716C359.716 140.396 360.332 144.715 361.743 148.448L366.42 146.68L371.098 144.913C370.236 142.632 369.716 139.589 369.716 135.636H364.716ZM366.42 146.68L361.76 148.493C363.213 152.229 365.458 155.367 368.625 157.591L371.499 153.499L374.372 149.407C373.088 148.505 371.948 147.098 371.08 144.868L366.42 146.68ZM371.499 153.499L368.675 157.625C371.91 159.838 375.702 160.807 379.773 160.807V155.807V150.807C377.309 150.807 375.586 150.237 374.322 149.372L371.499 153.499ZM379.773 155.807V160.807C383.841 160.807 387.634 159.839 390.855 157.611L388.011 153.499L385.168 149.386C383.938 150.236 382.238 150.807 379.773 150.807V155.807ZM388.011 153.499L390.864 157.605C394.07 155.377 396.328 152.224 397.762 148.46L393.089 146.68L388.417 144.9C387.578 147.102 386.45 148.495 385.159 149.392L388.011 153.499ZM393.089 146.68L397.754 148.48C399.199 144.736 399.83 140.405 399.83 135.636H394.83H389.83C389.83 139.58 389.3 142.611 388.425 144.881L393.089 146.68ZM490.009 156.126L494.356 158.597L494.36 158.589L490.009 156.126ZM477.26 168.733L479.605 173.149L479.613 173.145L479.62 173.141L477.26 168.733ZM441.394 168.697L439.011 173.093L439.022 173.099L439.034 173.105L441.394 168.697ZM428.681 156.055L424.321 158.504L424.328 158.515L424.334 158.526L428.681 156.055ZM428.681 115.182L424.329 112.719L424.326 112.725L428.681 115.182ZM441.394 102.575L443.747 106.987L443.754 106.983L441.394 102.575ZM477.26 102.575L474.9 106.983L474.908 106.987L474.915 106.991L477.26 102.575ZM490.009 115.182L485.657 117.645L485.662 117.653L490.009 115.182ZM472.679 124.628L468.002 126.396L468.011 126.418L468.019 126.44L472.679 124.628ZM467.601 117.81L464.728 121.902L464.753 121.919L464.778 121.936L467.601 117.81ZM451.088 117.81L453.932 121.922L453.941 121.916L451.088 117.81ZM446.01 124.628L441.345 122.828L441.342 122.838L441.338 122.848L446.01 124.628ZM446.01 146.68L441.333 148.448L441.342 148.47L441.35 148.493L446.01 146.68ZM451.088 153.499L448.215 157.591L448.24 157.608L448.265 157.625L451.088 153.499ZM467.601 153.499L470.445 157.611L470.454 157.605L467.601 153.499ZM472.679 146.68L468.014 144.881L468.011 144.89L468.007 144.9L472.679 146.68ZM494.732 135.636H489.732C489.732 143.096 488.282 149.026 485.657 153.664L490.009 156.126L494.36 158.589C498.033 152.1 499.732 144.37 499.732 135.636H494.732ZM490.009 156.126L485.662 153.656C482.955 158.418 479.376 161.929 474.9 164.325L477.26 168.733L479.62 173.141C485.845 169.808 490.765 164.914 494.356 158.597L490.009 156.126ZM477.26 168.733L474.915 164.317C470.349 166.742 465.199 167.994 459.363 167.994V172.994V177.994C466.689 177.994 473.471 176.406 479.605 173.149L477.26 168.733ZM459.363 172.994V167.994C453.48 167.994 448.313 166.73 443.754 164.289L441.394 168.697L439.034 173.105C445.176 176.394 451.988 177.994 459.363 177.994V172.994ZM441.394 168.697L443.777 164.302C439.315 161.883 435.74 158.356 433.028 153.585L428.681 156.055L424.334 158.526C427.919 164.834 432.819 169.736 439.011 173.093L441.394 168.697ZM428.681 156.055L433.04 153.607C430.431 148.962 428.993 143.048 428.993 135.636H423.993H418.993C418.993 144.323 420.68 152.022 424.321 158.504L428.681 156.055ZM423.993 135.636H428.993C428.993 128.17 430.434 122.251 433.036 117.638L428.681 115.182L424.326 112.725C420.678 119.193 418.993 126.909 418.993 135.636H423.993ZM428.681 115.182L433.032 117.645C435.742 112.856 439.308 109.354 443.747 106.987L441.394 102.575L439.041 98.1635C432.826 101.478 427.917 106.38 424.329 112.719L428.681 115.182ZM441.394 102.575L443.754 106.983C448.313 104.542 453.48 103.278 459.363 103.278V98.2784V93.2784C451.988 93.2784 445.176 94.879 439.034 98.1673L441.394 102.575ZM459.363 98.2784V103.278C465.192 103.278 470.336 104.54 474.9 106.983L477.26 102.575L479.62 98.1673C473.484 94.8818 466.696 93.2784 459.363 93.2784V98.2784ZM477.26 102.575L474.915 106.991C479.377 109.36 482.951 112.862 485.657 117.645L490.009 115.182L494.36 112.719C490.77 106.375 485.844 101.472 479.605 98.1592L477.26 102.575ZM490.009 115.182L485.662 117.653C488.282 122.262 489.732 128.176 489.732 135.636H494.732H499.732C499.732 126.904 498.033 119.182 494.356 112.711L490.009 115.182ZM474.419 135.636H479.419C479.419 130.87 478.789 126.544 477.339 122.816L472.679 124.628L468.019 126.44C468.89 128.678 469.419 131.691 469.419 135.636H474.419ZM472.679 124.628L477.356 122.86C475.925 119.072 473.662 115.898 470.425 113.683L467.601 117.81L464.778 121.936C466.039 122.799 467.161 124.17 468.002 126.396L472.679 124.628ZM467.601 117.81L470.474 113.718C467.25 111.453 463.447 110.466 459.363 110.466V115.466V120.466C461.813 120.466 463.502 121.041 464.728 121.902L467.601 117.81ZM459.363 115.466V110.466C455.277 110.466 451.473 111.454 448.236 113.703L451.088 117.81L453.941 121.916C455.202 121.04 456.914 120.466 459.363 120.466V115.466ZM451.088 117.81L448.245 113.697C445.047 115.909 442.796 119.068 441.345 122.828L446.01 124.628L450.675 126.428C451.544 124.175 452.68 122.788 453.932 121.922L451.088 117.81ZM446.01 124.628L441.338 122.848C439.922 126.565 439.306 130.879 439.306 135.636H444.306H449.306C449.306 131.682 449.826 128.656 450.683 126.408L446.01 124.628ZM444.306 135.636H439.306C439.306 140.396 439.922 144.715 441.333 148.448L446.01 146.68L450.687 144.913C449.826 142.632 449.306 139.589 449.306 135.636H444.306ZM446.01 146.68L441.35 148.493C442.803 152.229 445.048 155.367 448.215 157.591L451.088 153.499L453.962 149.407C452.678 148.505 451.537 147.098 450.67 144.868L446.01 146.68ZM451.088 153.499L448.265 157.625C451.499 159.838 455.292 160.807 459.363 160.807V155.807V150.807C456.899 150.807 455.175 150.237 453.912 149.372L451.088 153.499ZM459.363 155.807V160.807C463.431 160.807 467.223 159.839 470.445 157.611L467.601 153.499L464.757 149.386C463.528 150.236 461.828 150.807 459.363 150.807V155.807ZM467.601 153.499L470.454 157.605C473.66 155.377 475.918 152.224 477.352 148.46L472.679 146.68L468.007 144.9C467.168 147.102 466.04 148.495 464.748 149.392L467.601 153.499ZM472.679 146.68L477.344 148.48C478.789 144.736 479.419 140.405 479.419 135.636H474.419H469.419C469.419 139.58 468.89 142.611 468.014 144.881L472.679 146.68ZM503.867 172H498.867V177H503.867V172ZM503.867 99.2727V94.2727H498.867V99.2727H503.867ZM550.955 103.641L548.597 108.05L548.609 108.056L548.62 108.062L550.955 103.641ZM563.597 116.141L559.204 118.528L559.21 118.54L559.217 118.551L563.597 116.141ZM563.633 155.168L568.022 157.563L568.026 157.555L563.633 155.168ZM551.062 167.668L553.413 172.08L553.42 172.076L553.428 172.072L551.062 167.668ZM523.612 155.239H518.612V160.239H523.612V155.239ZM540.337 153.499L538.272 148.945L538.264 148.949L538.256 148.953L540.337 153.499ZM546.161 147.497L541.645 145.352L541.638 145.367L541.63 145.383L546.161 147.497ZM546.126 123.776L541.609 125.921L541.617 125.936L541.624 125.951L546.126 123.776ZM540.16 117.774L538.125 122.341L538.133 122.345L538.141 122.348L540.16 117.774ZM523.612 116.034V111.034H518.612V116.034H523.612ZM531.85 172V167H503.867V172V177H531.85V172ZM503.867 172H508.867V99.2727H503.867H498.867V172H503.867ZM503.867 99.2727V104.273H531.566V99.2727V94.2727H503.867V99.2727ZM531.566 99.2727V104.273C538.397 104.273 544.016 105.6 548.597 108.05L550.955 103.641L553.313 99.2315C547.004 95.8577 539.697 94.2727 531.566 94.2727V99.2727ZM550.955 103.641L548.62 108.062C553.216 110.489 556.714 113.947 559.204 118.528L563.597 116.141L567.99 113.753C564.562 107.444 559.632 102.569 553.29 99.2194L550.955 103.641ZM563.597 116.141L559.217 118.551C561.712 123.086 563.072 128.716 563.072 135.636H568.072H573.072C573.072 127.405 571.449 120.038 567.978 113.73L563.597 116.141ZM568.072 135.636H563.072C563.072 142.562 561.721 148.214 559.24 152.78L563.633 155.168L568.026 157.555C571.463 151.231 573.072 143.862 573.072 135.636H568.072ZM563.633 155.168L559.244 152.772C556.748 157.345 553.259 160.812 548.696 163.263L551.062 167.668L553.428 172.072C559.707 168.699 564.599 163.833 568.022 157.563L563.633 155.168ZM551.062 167.668L548.711 163.255C544.146 165.687 538.582 167 531.85 167V172V177C539.891 177 547.135 175.425 553.413 172.08L551.062 167.668ZM523.612 155.239V160.239H531.14V155.239V150.239H523.612V155.239ZM531.14 155.239V160.239C535.256 160.239 539.072 159.578 542.419 158.045L540.337 153.499L538.256 148.953C536.537 149.74 534.221 150.239 531.14 150.239V155.239ZM540.337 153.499L542.403 158.052C546.174 156.341 548.925 153.399 550.692 149.612L546.161 147.497L541.63 145.383C540.746 147.277 539.614 148.336 538.272 148.945L540.337 153.499ZM546.161 147.497L550.678 149.642C552.482 145.844 553.185 141.043 553.185 135.636H548.185H543.185C543.185 140.363 542.539 143.468 541.645 145.352L546.161 147.497ZM548.185 135.636H553.185C553.185 130.222 552.468 125.408 550.627 121.6L546.126 123.776L541.624 125.951C542.529 127.825 543.185 130.918 543.185 135.636H548.185ZM546.126 123.776L550.642 121.63C548.831 117.817 546.011 114.891 542.179 113.2L540.16 117.774L538.141 122.348C539.565 122.977 540.722 124.052 541.609 125.921L546.126 123.776ZM540.16 117.774L542.194 113.207C538.776 111.684 534.842 111.034 530.572 111.034V116.034V121.034C533.878 121.034 536.335 121.544 538.125 122.341L540.16 117.774ZM530.572 116.034V111.034H523.612V116.034V121.034H530.572V116.034ZM523.612 116.034H518.612V155.239H523.612H528.612V116.034H523.612Z" fill="#FF7F3E" mask="url(#path-2-inside-1_14_388)"/>
</svg>
