<svg width="25" height="25" viewBox="0 0 25 25" fill="none" xmlns="http://www.w3.org/2000/svg">
<path d="M20.0321 15.8973L17.3863 15.5952C17.0752 15.5587 16.7599 15.5931 16.464 15.696C16.1681 15.7988 15.8994 15.9674 15.678 16.189L13.7613 18.1057C10.8042 16.6017 8.40067 14.1981 6.89673 11.241L8.82381 9.31388C9.27173 8.86596 9.49048 8.24095 9.41756 7.60553L9.11548 4.98049C9.05642 4.47234 8.81256 4.00364 8.43031 3.66365C8.04806 3.32366 7.55413 3.13611 7.04256 3.13672H5.24048C4.0634 3.13672 3.08423 4.1159 3.15715 5.293C3.70923 14.1889 10.8238 21.2932 19.7092 21.8453C20.8863 21.9182 21.8655 20.939 21.8655 19.7619V17.9598C21.8759 16.9077 21.0842 16.0223 20.0321 15.8973Z" fill="#F8F8F8"/>
</svg>
