<svg width="27" height="27" viewBox="0 0 27 27" fill="none" xmlns="http://www.w3.org/2000/svg">
<path d="M5.25586 20C5.25586 18.8507 5.71241 17.7485 6.52506 16.9359C7.33772 16.1232 8.43992 15.6667 9.58919 15.6667H18.2559C19.4051 15.6667 20.5073 16.1232 21.32 16.9359C22.1326 17.7485 22.5892 18.8507 22.5892 20C22.5892 20.5746 22.3609 21.1257 21.9546 21.5321C21.5483 21.9384 20.9972 22.1667 20.4225 22.1667H7.42253C6.84789 22.1667 6.29679 21.9384 5.89046 21.5321C5.48413 21.1257 5.25586 20.5746 5.25586 20Z" stroke="black" stroke-width="3.125" stroke-linejoin="round"/>
<path d="M13.9229 11.3333C15.7178 11.3333 17.1729 9.87826 17.1729 8.08333C17.1729 6.28841 15.7178 4.83333 13.9229 4.83333C12.1279 4.83333 10.6729 6.28841 10.6729 8.08333C10.6729 9.87826 12.1279 11.3333 13.9229 11.3333Z" stroke="black" stroke-width="3.125"/>
</svg>
