<svg width="22" height="22" viewBox="0 0 22 22" fill="none" xmlns="http://www.w3.org/2000/svg">
<path d="M21.3641 19.3987L16.5861 14.6207C17.7365 13.0893 18.3575 11.2253 18.3554 9.31C18.3554 4.41773 14.3751 0.4375 9.48285 0.4375C4.59059 0.4375 0.610352 4.41773 0.610352 9.31C0.610352 14.2023 4.59059 18.1825 9.48285 18.1825C11.3982 18.1846 13.2622 17.5636 14.7936 16.4133L19.5716 21.1913C19.8134 21.4075 20.1289 21.5229 20.4532 21.5138C20.7774 21.5048 21.0859 21.3719 21.3153 21.1425C21.5447 20.9131 21.6776 20.6046 21.6867 20.2803C21.6958 19.956 21.5803 19.6406 21.3641 19.3987ZM3.14535 9.31C3.14535 8.05656 3.51704 6.83127 4.21341 5.78907C4.90979 4.74688 5.89957 3.93458 7.0576 3.45491C8.21562 2.97524 9.48988 2.84974 10.7192 3.09427C11.9486 3.33881 13.0778 3.9424 13.9641 4.82871C14.8505 5.71503 15.454 6.84426 15.6986 8.07362C15.9431 9.30297 15.8176 10.5772 15.3379 11.7353C14.8583 12.8933 14.046 13.8831 13.0038 14.5794C11.9616 15.2758 10.7363 15.6475 9.48285 15.6475C7.80266 15.6455 6.19186 14.9771 5.00379 13.7891C3.81571 12.601 3.14737 10.9902 3.14535 9.31Z" fill="black" fill-opacity="0.4"/>
</svg>
